PathFileType	3	(X/Y/Z)	F:\ViconData\AntennenMessung\Messung1\Session1\ID11.trc
DataRate	CameraRate	NumFrames	NumMarkers	Units	OrigDataRate	OrigDataStartFrame	OrigNumFrames
120.0	120.0	4	70	mm	120.0	161	1286	
Frame#	Time	Ashort			Along			Atop			A4			Bshort			Blong			Btop			B4			Cshort			Clong			Ctop			C4			Dshort			Dlong			Dtop			D4			Eshort			Elong			Etop			E4			Fshort			Flong			Ftop			F4			Gshort			Glong			Gtop			G4			Hshort			Hlong			Htop			H4			I1			I2			I3			I4			I5			WandAshort			WandAlong			WandAtop			WandA4			WandA15			WandBshort			WandB4			WandB5			WandBtop			WandBlong			WandCshort			WandClong			WandCtop			WandC4			WandC5			Acenter			Aantenna			Bcenter			Bantenna			Ccenter			Cantenna			Dcenter			Dantenna			Ecenter			Eantenna			Fcenter			Fantenna			Gcenter			Gantenna			Hcenter			Hantenna			Icenter			Iantenna			
		X1	Y1	Z1	X2	Y2	Z2	X3	Y3	Z3	X4	Y4	Z4	X5	Y5	Z5	X6	Y6	Z6	X7	Y7	Z7	X8	Y8	Z8	X9	Y9	Z9	X10	Y10	Z10	X11	Y11	Z11	X12	Y12	Z12	X13	Y13	Z13	X14	Y14	Z14	X15	Y15	Z15	X16	Y16	Z16	X17	Y17	Z17	X18	Y18	Z18	X19	Y19	Z19	X20	Y20	Z20	X21	Y21	Z21	X22	Y22	Z22	X23	Y23	Z23	X24	Y24	Z24	X25	Y25	Z25	X26	Y26	Z26	X27	Y27	Z27	X28	Y28	Z28	X29	Y29	Z29	X30	Y30	Z30	X31	Y31	Z31	X32	Y32	Z32	X33	Y33	Z33	X34	Y34	Z34	X35	Y35	Z35	X36	Y36	Z36	X37	Y37	Z37	X38	Y38	Z38	X39	Y39	Z39	X40	Y40	Z40	X41	Y41	Z41	X42	Y42	Z42	X43	Y43	Z43	X44	Y44	Z44	X45	Y45	Z45	X46	Y46	Z46	X47	Y47	Z47	X48	Y48	Z48	X49	Y49	Z49	X50	Y50	Z50	X51	Y51	Z51	X52	Y52	Z52	X53	Y53	Z53	X54	Y54	Z54	X55	Y55	Z55	X56	Y56	Z56	X57	Y57	Z57	X58	Y58	Z58	X59	Y59	Z59	X60	Y60	Z60	X61	Y61	Z61	X62	Y62	Z62	X63	Y63	Z63	X64	Y64	Z64	X65	Y65	Z65	X66	Y66	Z66	X67	Y67	Z67	X68	Y68	Z68	X69	Y69	Z69	X70	Y70	Z70	
161	1.3333333	-1038.2189	214.40849	-1644.1985	-1109.2961	203.85139	-1599.3842	-1063.8549	172.60185	-1625.4496	-1054.1921	262.16785	-1634.9602	-1352.8459	235.04701	1003.7627	-1281.3298	227.14674	1052.4193	-1322.84	194.10579	1020.8463	-1284.7644	287.81442	1052.856	814.09155	187.5215	1209.6603	892.24115	178.62222	1179.2584	844.31281	145.48994	1198.4281	860.56293	292.77206	1167.3533	1115.7512	209.7709	-1401.7118	1056.1919	194.08809	-1460.2815	1095.026	162.79643	-1424.1505	1069.908	238.64972	-1425.8782	-1204.5022	1685.9348	-1563.2566	-1129.1208	1688.2487	-1606.0394	-1173.1025	1724.3588	-1581.9857	-1133.7408	1580.9872	-1603.7034	-1239.7147	1699.2754	1119.4807	-1309.3599	1698.8177	1071.8986	-1270.4421	1736.4083	1096.8868	-1244.8463	1593.9384	1106.0317	988.90015	1664.2698	1162.3038	957.45697	1700.4563	1183.77	922.88232	1662.1119	1215.0365	939.78979	1659.3905	1159.9513	999.07739	1668.5343	-1579.4531	1058.8883	1670.1642	-1518.6516	1025.0106	1708.0216	-1551.1322	1059.2603	1672.1418	-1585.4565	-26.493242	1172.9775	-954.26373	-111.38497	1171.6478	-962.97339	-64.776924	1209.6227	-959.30487	-60.65966	1170.6107	-989.70117	-68.985626	1175.3555	-910.46033																																														-1068.9788	209.83971	-1624.8042	-1074.2946	248.46994	-1624.1349	-1321.5586	231.59074	1025.0492	-1320.2345	270.32553	1029.3923	847.91187	183.67021	1196.5035	851.56732	222.4493	1194.5487	1088.6639	202.6384	-1428.349	1082.5472	240.94363	-1432.3857	-1171.8438	1686.9371	-1581.7919	-1170.5328	1647.9597	-1581.5901	-1271.0203	1699.0695	1098.0924	-1271.624	1660.0945	1099.351	953.23132	1705.3192	1186.6548	972.97614	1733.4296	1168.1899	1026.5087	1669.2817	-1551.5673	1028.0157	1630.3134	-1552.0051	-64.312706	1172.3851	-958.14386	-63.826794	1133.4071	-956.92865
162	1.3416667	-1038.1898	214.48158	-1644.2527	-1109.2944	203.92087	-1599.3901	-1063.8254	172.63518	-1625.4583	-1054.181	262.20432	-1634.9838	-1352.9231	235.02124	1003.8033	-1281.3251	227.1716	1052.4103	-1322.8867	194.08989	1020.8025	-1284.6493	287.89148	1052.8075	814.04901	187.50026	1209.5874	892.3241	178.67598	1179.1863	844.25146	145.61525	1198.3562	860.646	292.70114	1167.3854	1115.7448	209.75684	-1401.7209	1056.2219	194.13362	-1460.3173	1095.0343	162.80313	-1424.1443	1069.9083	238.67252	-1425.8795	-1204.5852	1686.0146	-1563.1146	-1129.123	1688.2192	-1606.0298	-1173.1016	1724.3503	-1581.9923	-1134.012	1580.9849	-1603.8163	-1239.6772	1699.2324	1119.4559	-1309.3491	1698.776	1071.8859	-1270.4116	1736.3606	1096.8699	-1244.7528	1593.6971	1106.551	988.88049	1664.2656	1162.2952	957.11993	1700.6388	1183.6935	922.83765	1662.1053	1215.0209	939.82086	1659.4006	1159.9463	999.0705	1668.5331	-1579.4546	1058.8733	1670.1686	-1518.6622	1025.0038	1708.0228	-1551.1472	1059.2565	1672.1471	-1585.4672	-26.510975	1172.8828	-954.09601	-111.40754	1171.665	-962.96326	-64.766762	1209.6162	-959.31171	-60.656284	1170.6158	-989.70905	-69.162598	1175.2737	-910.56836																																														-1068.9675	209.91032	-1624.8336	-1074.2966	248.53912	-1624.1864	-1321.6486	231.59245	1025.0352	-1320.3699	270.32553	1029.4067	847.81305	183.69388	1196.4738	851.44073	222.47743	1194.5566	1088.7041	202.65935	-1428.3407	1082.6194	240.97002	-1432.3744	-1171.8582	1686.9706	-1581.7263	-1170.5618	1647.9932	-1581.449	-1270.9905	1699.0272	1098.0759	-1271.5948	1660.0522	1099.3353	953.04858	1705.3013	1186.4364	972.69751	1733.3956	1167.8453	1026.4972	1669.2831	-1551.5739	1027.9995	1630.3143	-1552.0033	-64.363945	1172.3398	-958.04968	-63.942753	1133.3644	-956.72998
163	1.35	-1038.2162	214.39565	-1644.1779	-1109.2776	203.88271	-1599.3821	-1063.7948	172.66312	-1625.4766	-1054.187	262.20718	-1634.9705	-1353.0156	234.8295	1003.8976	-1281.3635	227.18459	1052.3945	-1322.7838	194.11868	1020.7899	-1284.5547	287.91696	1052.6876	814.04944	187.57285	1209.5685	892.79114	179.20174	1178.6202	844.29437	145.64023	1198.2719	860.5401	292.84271	1167.2599	1115.7489	209.76659	-1401.7192	1056.2355	194.12975	-1460.274	1095.0333	162.81737	-1424.1678	1069.8977	238.63199	-1425.8804	-1204.5116	1685.9425	-1563.235	-1129.126	1688.2408	-1606.0367	-1173.0957	1724.3479	-1582.0031	-1133.736	1580.9862	-1603.712	-1239.6978	1699.2336	1119.4636	-1309.3661	1698.7815	1071.8794	-1270.4365	1736.3939	1096.8873	-1244.7001	1593.7915	1106.5173	988.86469	1664.2555	1162.2731	957.55127	1700.4613	1183.8499	922.69794	1661.9963	1214.9756	939.73328	1659.3505	1159.9874	999.05634	1668.5237	-1579.4691	1058.8469	1670.1445	-1518.6677	1025.0146	1708.0198	-1551.1339	1059.2511	1672.1403	-1585.4653	-26.515266	1172.9691	-954.25201	-111.43066	1171.7092	-963.00073	-64.76889	1209.6224	-959.30353	-60.652695	1170.621	-989.69586	-69.132782	1175.2612	-910.55377																																														-1068.895	209.85696	-1624.8385	-1074.1926	248.48979	-1624.1755	-1321.7063	231.48894	1025.0887	-1320.5897	270.21753	1029.5441	847.62592	184.0033	1196.3717	850.99603	222.80983	1194.4496	1088.6815	202.65479	-1428.3506	1082.5735	240.96295	-1432.3726	-1171.8335	1686.9387	-1581.7887	-1170.5184	1647.9617	-1581.5654	-1271.0077	1699.0303	1098.0785	-1271.6034	1660.0547	1099.3212	953.34509	1705.3245	1186.748	973.22888	1733.4355	1168.4341	1026.5	1669.2676	-1551.5614	1027.9937	1630.2986	-1551.9912	-64.335724	1172.4078	-958.14856	-63.88203	1133.4293	-956.93884
164	1.3583333	-1038.1996	214.45949	-1644.2375	-1109.3148	203.87434	-1599.3735	-1063.8646	172.60828	-1625.4761	-1054.1868	262.22159	-1634.9904	-1352.9214	235.05597	1003.7818	-1281.3025	227.14122	1052.3744	-1322.9148	194.04395	1020.8771	-1284.5753	287.86127	1052.7216	814.07623	187.56651	1209.5576	892.44788	178.60318	1179.2615	844.5257	145.41302	1198.3174	860.57666	292.74347	1167.2302	1115.7623	209.78886	-1401.7181	1056.196	194.13313	-1460.3191	1095.0061	162.67603	-1424.0323	1069.8608	238.64241	-1425.9047	-1204.5232	1685.9525	-1563.2607	-1129.1251	1688.2916	-1606.2642	-1173.0946	1724.3384	-1581.9922	-1134.0078	1580.9979	-1603.8411	-1239.7103	1699.2712	1119.4812	-1309.3765	1698.8398	1071.9092	-1270.4238	1736.3541	1096.8738	-1244.6837	1593.9299	1106.4753	988.87476	1664.2699	1162.328	957.45471	1700.4124	1183.7964	922.90021	1662.1868	1215.1107	939.80298	1659.3883	1159.9929	999.06775	1668.5365	-1579.4705	1058.8625	1670.1486	-1518.6588	1025.005	1708.0133	-1551.1481	1059.2545	1672.1349	-1585.4611	-26.506742	1172.9698	-954.25739	-111.40939	1171.6682	-962.97095	-64.76799	1209.6261	-959.29065	-60.654991	1170.6085	-989.70728	-68.985794	1175.3389	-910.45319																																														-1068.9923	209.87611	-1624.8114	-1074.3076	248.50609	-1624.1224	-1321.5896	231.59343	1025.0399	-1320.2224	270.33212	1029.3346	848.15363	183.6691	1196.3842	851.83105	222.44585	1194.4248	1088.7161	202.6803	-1428.326	1082.692	240.9922	-1432.4381	-1171.8728	1686.9655	-1581.8828	-1170.5986	1647.9865	-1581.769	-1271.0277	1699.0773	1098.0959	-1271.6591	1660.1033	1099.3738	953.16107	1705.3513	1186.7301	972.87347	1733.4696	1168.2427	1026.4902	1669.2758	-1551.5815	1027.9845	1630.3069	-1552.0178	-64.315445	1172.3901	-958.13763	-63.84174	1133.4116	-956.93079
